<svg width="440" height="421" viewBox="0 0 440 421" fill="none" xmlns="http://www.w3.org/2000/svg">
<path d="M220 418C220 418 153.465 408.978 111.197 408.978C76.4078 408.978 25.9288 415.09 9.1545 417.253C6.14647 417.64 3.5 415.296 3.5 412.263V78.4361C3.5 76.4541 4.66719 74.6644 6.50706 73.9275C13.539 71.1112 31.9001 64.3285 50.8164 62.0552M220 418C220 418 284.323 408.978 326.591 408.978C361.522 408.978 413.783 415.139 430.873 417.278C433.873 417.653 436.5 415.312 436.5 412.288V78.2908C436.5 76.3829 435.422 74.6497 433.67 73.894C427.523 71.2419 411.998 65.2075 393.421 62.975M220 418V363.795M220 363.795C220 363.795 163.606 354.848 129.792 354.848C103.255 354.848 68.3673 360.37 54.5796 362.747C51.4763 363.282 48.6257 360.883 48.6487 357.734L50.8164 62.0552M220 363.795C220 363.795 273.449 354.848 307.264 354.848C334.057 354.848 371.212 361.055 385.486 363.632C388.571 364.189 391.415 361.832 391.436 358.698L393.421 62.975M220 363.795V12.0217M50.8164 62.0552V16.2201C50.8164 13.7924 52.5325 11.7229 54.928 11.3283C67.7562 9.21527 107.833 3 135.408 3C168.631 3 220 12.0217 220 12.0217M393.421 62.975V16.238C393.421 13.8024 391.694 11.7283 389.289 11.3416C376.228 9.24151 335.028 3 306.711 3C272.665 3 220 12.0217 220 12.0217" stroke="#469FFF" stroke-width="6" stroke-linecap="round" stroke-linejoin="round"/>
</svg>
